<?xml version="1.0" encoding="UTF-8"?>
<svg id="Layer_2" data-name="Layer 2" xmlns="http://www.w3.org/2000/svg" viewBox="0 0 56.18 61.72">
  <defs>
    <style>
      .cls-1 {
        fill: #fff;
      }
    </style>
  </defs>
  <g id="Layer_1-2" data-name="Layer 1">
    <g>
      <path class="cls-1" d="M7.96,7.52v18.01c4.24-10.05,14.05-17.14,25.67-16.36,9.06.61,14.81,4.95,14.35,11.73-.17,2.46-1.12,4.52-2.55,5.99,4.95-2.35,7.68-6.37,7.68-12.43C53.1,3.53,44.1,0,28.59,0H0v.62c5.62,0,7.39,2.15,7.96,6.91Z"/>
      <path class="cls-1" d="M39.52,29.24c-.06,0-.13,0-.19,0-.74-.05-1.48-.21-2.17-.49-3.66-1.48-4.26-6.28-1.46-9.05,1.03-1.02,1.93-2.51,2.06-4.52.2-3.01-1.22-5.13-4.04-5.32-6.72-.45-11.86,10.64-12.47,19.68-.63,9.29,3.28,14.26,9.59,14.86,8.15,0,12.08-3.02,13.51-4.49.15-.16.42,0,.35.21-4.18,12.57-15.46,14.4-23.67,13.79-5.91-.4-10.52-3.28-13.08-7.95v8.09c-.56,4.75-2.34,7.06-7.96,7.06v.62h17.53s10.61,0,10.61,0c16.58,0,28.04-3.61,28.04-17.28,0-8.98-6.15-13.64-16.66-15.2Z"/>
    </g>
  </g>
</svg>