<?xml version="1.0" encoding="UTF-8"?>
<svg id="Layer_2" data-name="Layer 2" xmlns="http://www.w3.org/2000/svg" viewBox="0 0 64.38 70.72">
  <g id="Layer_1-2" data-name="Layer 1">
    <g>
      <path d="M9.12,8.62v20.64c4.86-11.52,16.1-19.64,29.41-18.74,10.38.7,16.97,5.67,16.45,13.44-.19,2.82-1.29,5.18-2.93,6.86,5.67-2.69,8.8-7.29,8.8-14.25C60.84,4.04,50.54,0,32.76,0H0v.71c6.44,0,8.47,2.46,9.12,7.91Z"/>
      <path d="M45.29,33.51c-.07,0-.15,0-.22,0-.85-.06-1.69-.24-2.49-.56-4.19-1.69-4.89-7.2-1.67-10.37,1.18-1.16,2.21-2.87,2.36-5.18.23-3.45-1.4-5.88-4.62-6.09-7.7-.52-13.59,12.19-14.28,22.55-.72,10.65,3.75,16.34,10.99,17.02,9.34,0,13.84-3.46,15.48-5.14.18-.18.48,0,.4.24-4.79,14.4-17.72,16.5-27.13,15.8-6.77-.46-12.05-3.76-14.99-9.11v9.27c-.65,5.45-2.68,8.09-9.12,8.09v.71h20.09s12.16,0,12.16,0c18.99,0,32.13-4.14,32.13-19.8,0-10.29-7.05-15.63-19.09-17.41Z"/>
    </g>
  </g>
</svg>